<?xml version="1.0" encoding="UTF-8" standalone="no"?>
<!-- Created with Inkscape (http://www.inkscape.org/) -->

<svg
   xmlns:dc="http://purl.org/dc/elements/1.1/"
   xmlns:cc="http://creativecommons.org/ns#"
   xmlns:rdf="http://www.w3.org/1999/02/22-rdf-syntax-ns#"
   xmlns:svg="http://www.w3.org/2000/svg"
   xmlns="http://www.w3.org/2000/svg"
   xmlns:sodipodi="http://sodipodi.sourceforge.net/DTD/sodipodi-0.dtd"
   xmlns:inkscape="http://www.inkscape.org/namespaces/inkscape"
   id="svg3004"
   version="1.1"
   inkscape:version="0.48.4 r9939"
   width="123.78625"
   height="49.706249"
   xml:space="preserve"
   sodipodi:docname="New document 3"><metadata
     id="metadata3010"><rdf:RDF><cc:Work
         rdf:about=""><dc:format>image/svg+xml</dc:format><dc:type
           rdf:resource="http://purl.org/dc/dcmitype/StillImage" /><dc:title></dc:title></cc:Work></rdf:RDF></metadata><defs
     id="defs3008"><clipPath
       clipPathUnits="userSpaceOnUse"
       id="clipPath3112"><path
         d="m 427.231,487.559 -0.301,-101.066 0,-10.893 300.179,0 33,111.959 -332.878,0 z"
         id="path3114"
         inkscape:connector-curvature="0" /></clipPath><linearGradient
       x1="0"
       y1="0"
       x2="1"
       y2="0"
       gradientUnits="userSpaceOnUse"
       gradientTransform="matrix(333.21223,0,0,-333.21223,426.89764,431.57936)"
       spreadMethod="pad"
       id="linearGradient3120"><stop
         style="stop-opacity:1;stop-color:#2c3797"
         offset="0"
         id="stop3122" /><stop
         style="stop-opacity:1;stop-color:#1d438d"
         offset="0.36264"
         id="stop3124" /><stop
         style="stop-opacity:1;stop-color:#2bb9f1"
         offset="1"
         id="stop3126" /></linearGradient><clipPath
       clipPathUnits="userSpaceOnUse"
       id="clipPath3134"><path
         d="m 426.898,367.511 333.211,0 0,120.047 -333.211,0 0,-120.047 z"
         id="path3136"
         inkscape:connector-curvature="0" /></clipPath><clipPath
       clipPathUnits="userSpaceOnUse"
       id="clipPath3256"><path
         d="m 0,0 841.89,0 0,595.276 L 0,595.276 0,0 z"
         id="path3258"
         inkscape:connector-curvature="0" /></clipPath><clipPath
       clipPathUnits="userSpaceOnUse"
       id="clipPath3264"><path
         d="m -24.2576,596.275 182.1336,0 0,-77.072 -182.1336,0 0,77.072 z"
         id="path3266"
         inkscape:connector-curvature="0" /></clipPath><clipPath
       clipPathUnits="userSpaceOnUse"
       id="clipPath3282"><path
         d="m -24.2576,596.275 182.1336,0 0,-77.072 -182.1336,0 0,77.072 z"
         id="path3284"
         inkscape:connector-curvature="0" /></clipPath><clipPath
       clipPathUnits="userSpaceOnUse"
       id="clipPath3286"><path
         d="m -0.002,595.276 0.001,-75.073 133.618,0 22.287,75.073 -155.906,0 z"
         id="path3288"
         inkscape:connector-curvature="0" /></clipPath><linearGradient
       x1="0"
       y1="0"
       x2="1"
       y2="0"
       gradientUnits="userSpaceOnUse"
       gradientTransform="matrix(156.56992,0,-47.868225,-156.56992,-22.951889,520.20312)"
       spreadMethod="pad"
       id="linearGradient3290"><stop
         style="stop-opacity:1;stop-color:#2c3797"
         offset="0"
         id="stop3292" /><stop
         style="stop-opacity:1;stop-color:#1d438c"
         offset="0.36264"
         id="stop3294" /><stop
         style="stop-opacity:1;stop-color:#1d438c"
         offset="0.36264"
         id="stop3296" /><stop
         style="stop-opacity:1;stop-color:#2cb9f1"
         offset="1"
         id="stop3298" /></linearGradient><clipPath
       clipPathUnits="userSpaceOnUse"
       id="clipPath3326"><path
         d="m 427.064,329.481 -0.15,-50.39 0,-5.464 149.754,0 16.463,55.854 -166.067,0 z"
         id="path3328"
         inkscape:connector-curvature="0" /></clipPath><linearGradient
       x1="0"
       y1="0"
       x2="1"
       y2="0"
       gradientUnits="userSpaceOnUse"
       gradientTransform="matrix(166.2332,0,0,-166.2332,426.89764,301.55421)"
       spreadMethod="pad"
       id="linearGradient3334"><stop
         style="stop-opacity:1;stop-color:#231f20"
         offset="0"
         id="stop3336" /><stop
         style="stop-opacity:1;stop-color:#393637"
         offset="0.36264"
         id="stop3338" /><stop
         style="stop-opacity:1;stop-color:#918f8f"
         offset="1"
         id="stop3340" /></linearGradient><clipPath
       clipPathUnits="userSpaceOnUse"
       id="clipPath3348"><path
         d="m 426.898,269.592 166.233,0 0,59.889 -166.233,0 0,-59.889 z"
         id="path3350"
         inkscape:connector-curvature="0" /></clipPath><clipPath
       clipPathUnits="userSpaceOnUse"
       id="clipPath3360"><path
         d="m 0,0 841.89,0 0,595.276 L 0,595.276 0,0 z"
         id="path3362"
         inkscape:connector-curvature="0" /></clipPath><clipPath
       clipPathUnits="userSpaceOnUse"
       id="clipPath3372"><path
         d="m 620.788,328.819 0,-58.211 c 0,0 43.937,-5.285 79.653,0.57 l 0,0 c 35.717,5.855 72,-0.469 72,-0.469 l 0,0 c 0,0 5.102,14.739 0.62,29.197 l 0,0 c -4.481,14.456 0,28.913 0,28.913 l 0,0 -152.273,0 z"
         id="path3374"
         inkscape:connector-curvature="0" /></clipPath><clipPath
       clipPathUnits="userSpaceOnUse"
       id="clipPath3392"><path
         d="m 638.362,274.036 55.276,0 0,45.503 -55.276,0 0,-45.503 z"
         id="path3394"
         inkscape:connector-curvature="0" /></clipPath><clipPath
       clipPathUnits="userSpaceOnUse"
       id="clipPath3404"><path
         d="m 421.654,143.23 127.424,0 0,63.698 -127.424,0 0,-63.698 z"
         id="path3406"
         inkscape:connector-curvature="0" /></clipPath><clipPath
       clipPathUnits="userSpaceOnUse"
       id="clipPath3426"><path
         d="m 420.945,43.073 127.423,0 0,63.698 -127.423,0 0,-63.698 z"
         id="path3428"
         inkscape:connector-curvature="0" /></clipPath></defs><sodipodi:namedview
     pagecolor="#ffffff"
     bordercolor="#666666"
     borderopacity="1"
     objecttolerance="10"
     gridtolerance="10"
     guidetolerance="10"
     inkscape:pageopacity="0"
     inkscape:pageshadow="2"
     inkscape:window-width="1337"
     inkscape:window-height="722"
     id="namedview3006"
     showgrid="false"
     fit-margin-top="0"
     fit-margin-left="0"
     fit-margin-right="0"
     fit-margin-bottom="0"
     inkscape:zoom="1.0320161"
     inkscape:cx="203.87066"
     inkscape:cy="178.23332"
     inkscape:window-x="29"
     inkscape:window-y="24"
     inkscape:window-maximized="1"
     inkscape:current-layer="g3012" /><g
     id="g3012"
     inkscape:groupmode="layer"
     inkscape:label="kpmg guidelines"
     transform="matrix(1.25,0,0,-1.25,-637.48126,228.81065)"><g
       id="g3400"
       transform="translate(83.316711,-8.7701801)"><g
         id="g3402"
         clip-path="url(#clipPath3404)"><g
           id="g3408"
           transform="translate(503.7153,191.8187)"><path
             d="m 0,0 0,-19.849 c -0.686,-0.543 -1.285,-1.126 -1.834,-1.762 l 0,21.611 -21.982,0 0,-18.078 -1.825,0 0,18.078 -21.985,0 0,-18.097 -1.829,0 0,18.097 -21.978,0 0,-20.634 -5.614,-18.694 4.935,0 2.483,8.266 0.709,0 4.087,-8.266 5.967,0 -3.974,8.266 9.014,0 -2.503,-8.266 5.394,0 2.471,8.253 1.182,0 0,0.013 1.695,0 0.139,0 10.167,0 -2.378,-8.249 5.431,0 2.305,8.249 2.45,0 0.07,-8.249 4.563,0 5.229,8.249 3.424,0 -1.768,-8.249 5.355,0 1.739,8.249 3.093,0 c -0.124,-2.544 0.529,-4.875 2.225,-6.438 2.083,-1.914 5.258,-2.265 7.616,-2.265 3.233,0 6.574,0.454 9.945,1.206 l 1.861,7.497 6.103,0 L 21.982,0 0,0 z m -69.39,-30.274 0.026,0.113 0.067,-0.113 -0.093,0 z m 19.151,11.117 -0.318,-1.06 -2.931,-9.719 -0.106,-0.338 -9.624,0 -0.748,1.58 10.372,10.597 -6.663,0 -8.106,-8.74 2.629,8.74 -4.915,0 0,17.315 20.41,0 0,-18.375 z m 5.672,-8.217 -0.006,0 c -0.192,-0.012 -0.394,-0.026 -0.616,-0.026 -0.298,-0.006 -0.537,-0.013 -0.755,-0.013 l -1.312,0.013 0.603,2.232 0.291,1.113 0.689,2.596 c 0.302,0 0.59,0.01 0.881,0.01 0.345,0.004 0.689,0.004 1.007,0.004 1.735,0 2.828,-0.103 3.235,-0.659 0.301,-0.415 0.255,-1.137 -0.099,-2.229 -0.626,-1.881 -1.401,-2.858 -3.918,-3.041 m 14.876,-2.9 2.146,7.637 0.072,-7.637 -2.218,0 z m 3.258,12.196 -5.113,0 -3.503,-12.196 -5.418,0 c 2.762,1.013 4.444,2.967 4.97,5.868 0.418,2.245 0.216,3.722 -0.705,4.829 -1.371,1.648 -4.132,1.513 -6.573,1.513 -0.447,0 -4.063,-0.014 -4.063,-0.014 l 0,17.296 20.405,0 0,-17.296 z m 12.409,-12.196 -3.077,0 4.65,7.312 -1.573,-7.312 z m 11.402,11.858 -0.007,-4.221 c -1.428,-1.968 -2.311,-4.121 -2.729,-5.849 -0.155,-0.603 -0.265,-1.199 -0.324,-1.788 l -3.001,0 2.564,12.177 -8.637,0.006 -7.729,-12.183 -0.563,0 0,29.492 20.426,0 0,-17.634 z M 9.15,-35.261 c -1.172,-0.212 -2.335,-0.361 -3.44,-0.361 -2.942,0 -4.984,1.377 -5.031,4.56 l 9.514,0 -1.043,-4.199 z m 12.064,4.987 -5.15,0 0.845,3.398 -10.312,0 -0.845,-3.398 -4.977,0 0,0.695 c 0.073,0.381 0.139,0.785 0.242,1.219 0.907,3.659 3.315,7.292 7.474,7.292 1.656,0 3.292,-0.629 3.066,-2.907 l 6.134,0 c 0.241,1.066 0.649,2.881 -0.517,4.543 -1.302,1.811 -3.934,2.537 -7.352,2.537 -2.43,0 -5.981,-0.392 -9.047,-2.391 l 0,18.504 20.439,0 0,-29.492 z"
             style="fill:#1d4a97;fill-opacity:1;fill-rule:nonzero;stroke:none"
             id="path3410"
             inkscape:connector-curvature="0" /></g></g></g></g></svg>